<svg xmlns="http://www.w3.org/2000/svg" xmlns:xlink="http://www.w3.org/1999/xlink" width="1080" zoomAndPan="magnify" viewBox="0 0 810 809.999993" height="1080" preserveAspectRatio="xMidYMid meet" version="1.0"><defs><g/></defs><rect x="-81" width="972" fill="#ffffff" y="-80.999999" height="971.999992" fill-opacity="1"/><rect x="-81" width="972" fill="#f2f2f2" y="-80.999999" height="971.999992" fill-opacity="1"/><g fill="#000000" fill-opacity="1"><g transform="translate(241.790031, 728.534031)"><g><path d="M 265.261719 -557.796875 C 286.75 -557.796875 307.40625 -552.011719 323.933594 -542.09375 L 337.984375 -623.90625 C 309.886719 -637.128906 274.351562 -644.566406 238.820312 -644.566406 C 137.175781 -644.566406 76.851562 -598.289062 76.851562 -518.957031 C 76.851562 -466.070312 115.691406 -428.882812 181.800781 -416.488281 L 181.800781 -414.835938 L 19.832031 -414.835938 L 19.832031 -339.636719 L 82.636719 -339.636719 L 82.636719 0 L 191.714844 0 L 191.714844 -339.636719 L 316.496094 -339.636719 L 316.496094 -414.835938 L 185.933594 -414.835938 L 185.933594 -480.945312 C 185.933594 -528.875 213.203125 -557.796875 265.261719 -557.796875 Z M 265.261719 -557.796875 "/></g></g></g></svg>