<svg width="135" height="24" viewBox="0 0 135 24" fill="none" xmlns="http://www.w3.org/2000/svg">
<path d="M8.89346 2.48341C6.83886 2.48341 5.78221 3.59876 5.78221 5.4479V8.38303H10.7426V10.5257H5.98767V23H3.05254V10.5257H0.733784V8.38303H5.63546V8.32433C3.90373 7.6786 2.84708 6.32844 2.84708 4.62606C2.84708 1.77898 4.84297 0.105953 8.21838 0.105953C9.36308 0.105953 10.4784 0.340764 11.359 0.781034L10.9481 3.01174C10.3317 2.65952 9.65659 2.48341 8.89346 2.48341ZM13.2641 5.33049V2.01379H16.1992V5.33049H13.2641ZM13.2641 23V8.38303H16.1992V23H13.2641ZM28.9991 10.5257H24.1855V18.4799C24.1855 20.0355 25.1247 20.9161 26.7391 20.9161C27.4435 20.9161 28.2066 20.7399 28.7937 20.4464V22.6771C27.9718 23.0587 26.8565 23.2935 25.7998 23.2935C22.9527 23.2935 21.2504 21.6205 21.2504 18.7734V10.5257H18.9903V8.38303H21.4558V3.3933H24.391V4.62606C24.391 6.32844 23.3343 7.6786 21.5732 8.32433V8.38303H28.9991V10.5257ZM41.4966 8.38303H44.6666L40.2932 23H34.6871L30.3137 8.38303H33.4543L37.4461 22.7945H37.5048L41.4966 8.38303ZM60.2615 15.6915V16.1024H49.2841C49.4015 19.1843 50.9278 21.0041 53.3639 21.0041C55.5066 21.0041 57.0035 19.8301 57.3851 17.8342H60.2615C59.7625 21.2683 57.209 23.2935 53.3639 23.2935C48.9906 23.2935 46.437 20.4758 46.437 15.6915C46.437 10.9072 48.9906 8.08952 53.3639 8.08952C57.7079 8.08952 60.2615 10.9072 60.2615 15.6915ZM53.3639 10.3789C51.0158 10.3789 49.5483 12.0226 49.3135 14.8697H57.3557C57.1209 12.0226 55.6827 10.3789 53.3639 10.3789ZM71.3437 8.08952C72.1655 8.08952 73.0167 8.26563 73.6038 8.52979L72.7232 11.2595C72.1655 10.9366 71.3731 10.7311 70.6099 10.7311C68.0857 10.7311 66.6181 12.6977 66.6181 16.0437V23H63.683V8.38303H66.6181V14.1065H66.6768C66.6768 10.3202 68.4086 8.08952 71.3437 8.08952ZM81.0349 23.2935C77.0431 23.2935 74.6657 21.4444 74.6657 18.2744H77.4541C77.4541 20.1823 78.7749 21.327 81.0349 21.327C83.2656 21.327 84.5571 20.4758 84.5571 19.0082C84.5571 17.1591 82.6199 16.8362 80.5066 16.4547C77.9824 16.0437 75.106 15.5448 75.106 12.3748C75.106 9.70384 77.3073 8.08952 81.0349 8.08952C84.7625 8.08952 86.9639 9.87995 86.9639 12.9325H84.1755C84.1755 11.1127 83.0308 10.0267 81.0349 10.0267C79.0977 10.0267 77.953 10.8192 77.953 12.14C77.953 13.6663 79.7141 13.9891 81.71 14.3414C84.3223 14.811 87.4042 15.3393 87.4042 18.7441C87.4042 21.5911 85.0267 23.2935 81.0349 23.2935ZM103.715 15.6915V16.1024H92.7379C92.8553 19.1843 94.3815 21.0041 96.8177 21.0041C98.9603 21.0041 100.457 19.8301 100.839 17.8342H103.715C103.216 21.2683 100.663 23.2935 96.8177 23.2935C92.4443 23.2935 89.8908 20.4758 89.8908 15.6915C89.8908 10.9072 92.4443 8.08952 96.8177 8.08952C101.162 8.08952 103.715 10.9072 103.715 15.6915ZM96.8177 10.3789C94.4696 10.3789 93.002 12.0226 92.7672 14.8697H100.809C100.575 12.0226 99.1364 10.3789 96.8177 10.3789ZM106.527 19.742H109.961V23H106.527V19.742ZM124.24 8.38303H127.175V23H124.24V18.1277H124.181C124.181 21.3563 122.215 23.2935 118.869 23.2935C115.053 23.2935 112.793 20.4758 112.793 15.6915C112.793 10.9072 115.053 8.08952 118.869 8.08952C122.215 8.08952 124.181 10.0267 124.181 13.2554H124.24V8.38303ZM120.131 20.9161C122.86 20.9161 124.445 18.8615 124.445 15.6915C124.445 12.5216 122.86 10.467 120.131 10.467C117.401 10.467 115.816 12.4042 115.816 15.6915C115.816 18.9789 117.401 20.9161 120.131 20.9161ZM131.501 5.33049V2.01379H134.436V5.33049H131.501ZM131.501 23V8.38303H134.436V23H131.501Z" fill="white"/>
</svg>
